<svg width="20" height="20" viewBox="0 0 20 20" fill="none" xmlns="http://www.w3.org/2000/svg">
<path d="M11.6673 11.8767V13.6184C10.9131 13.3517 10.1059 13.2699 9.31349 13.3799C8.52109 13.4898 7.76665 13.7883 7.11351 14.2502C6.46037 14.7121 5.9276 15.3241 5.55995 16.0345C5.1923 16.745 5.0005 17.5334 5.00065 18.3334L3.33398 18.3325C3.33373 17.3149 3.56642 16.3108 4.01423 15.397C4.46205 14.4833 5.1131 13.6841 5.9175 13.0609C6.7219 12.4377 7.6583 12.0068 8.65495 11.8014C9.65159 11.596 10.682 11.6215 11.6673 11.8759V11.8767ZM10.0007 10.8334C7.23815 10.8334 5.00065 8.59587 5.00065 5.83337C5.00065 3.07087 7.23815 0.833374 10.0007 0.833374C12.7632 0.833374 15.0007 3.07087 15.0007 5.83337C15.0007 8.59587 12.7632 10.8334 10.0007 10.8334ZM10.0007 9.16671C11.8423 9.16671 13.334 7.67504 13.334 5.83337C13.334 3.99171 11.8423 2.50004 10.0007 2.50004C8.15898 2.50004 6.66732 3.99171 6.66732 5.83337C6.66732 7.67504 8.15898 9.16671 10.0007 9.16671ZM14.8281 16.595L17.774 13.6492L18.9532 14.8275L14.8281 18.9525L11.8815 16.0059L13.0607 14.8275L14.8273 16.595H14.8281Z" fill="#464646"/>
</svg>
