<svg width="16" height="16" viewBox="0 0 16 16" fill="none" xmlns="http://www.w3.org/2000/svg">
<path d="M4.66668 7.33325C4.27271 7.33325 3.8826 7.25566 3.51863 7.10489C3.15465 6.95413 2.82393 6.73315 2.54536 6.45457C2.26678 6.176 2.0458 5.84528 1.89504 5.4813C1.74427 5.11733 1.66668 4.72722 1.66668 4.33325C1.66668 3.93929 1.74427 3.54918 1.89504 3.1852C2.0458 2.82122 2.26678 2.49051 2.54536 2.21193C2.82393 1.93336 3.15465 1.71238 3.51863 1.56161C3.8826 1.41085 4.27271 1.33325 4.66668 1.33325C5.46233 1.33325 6.22539 1.64932 6.788 2.21193C7.35061 2.77454 7.66668 3.5376 7.66668 4.33325C7.66668 5.1289 7.35061 5.89196 6.788 6.45457C6.22539 7.01718 5.46233 7.33325 4.66668 7.33325V7.33325ZM11.6667 9.99992C10.9594 9.99992 10.2812 9.71897 9.78106 9.21887C9.28096 8.71877 9.00001 8.0405 9.00001 7.33325C9.00001 6.62601 9.28096 5.94773 9.78106 5.44763C10.2812 4.94754 10.9594 4.66659 11.6667 4.66659C12.3739 4.66659 13.0522 4.94754 13.5523 5.44763C14.0524 5.94773 14.3333 6.62601 14.3333 7.33325C14.3333 8.0405 14.0524 8.71877 13.5523 9.21887C13.0522 9.71897 12.3739 9.99992 11.6667 9.99992ZM11.6667 10.6666C12.4623 10.6666 13.2254 10.9827 13.788 11.5453C14.3506 12.1079 14.6667 12.8709 14.6667 13.6666V13.9999H8.66668V13.6666C8.66668 12.8709 8.98275 12.1079 9.54536 11.5453C10.108 10.9827 10.871 10.6666 11.6667 10.6666V10.6666ZM4.66668 7.99992C5.10442 7.99992 5.53787 8.08614 5.94229 8.25365C6.34671 8.42117 6.71417 8.6667 7.0237 8.97623C7.33323 9.28576 7.57876 9.65322 7.74628 10.0576C7.91379 10.4621 8.00001 10.8955 8.00001 11.3333V13.9999H1.33334V11.3333C1.33334 10.4492 1.68453 9.60135 2.30965 8.97623C2.93478 8.35111 3.78262 7.99992 4.66668 7.99992V7.99992Z" fill="#464646"/>
</svg>
