<svg width="16" height="16" viewBox="0 0 16 16" fill="none" xmlns="http://www.w3.org/2000/svg">
<path d="M1.33334 7.33341H14.6667V13.3334C14.6667 13.5102 14.5964 13.6798 14.4714 13.8048C14.3464 13.9298 14.1768 14.0001 14 14.0001H2.00001C1.8232 14.0001 1.65363 13.9298 1.52861 13.8048C1.40358 13.6798 1.33334 13.5102 1.33334 13.3334V7.33341ZM11.3333 2.00008H14C14.1768 2.00008 14.3464 2.07032 14.4714 2.19534C14.5964 2.32037 14.6667 2.48994 14.6667 2.66675V6.00008H1.33334V2.66675C1.33334 2.48994 1.40358 2.32037 1.52861 2.19534C1.65363 2.07032 1.8232 2.00008 2.00001 2.00008H4.66668V0.666748H6.00001V2.00008H10V0.666748H11.3333V2.00008Z" fill="#464646"/>
</svg>
