<svg width="20" height="20" viewBox="0 0 20 20" fill="none" xmlns="http://www.w3.org/2000/svg">
<path d="M5.83268 7.49996C6.38522 7.49996 6.91512 7.28047 7.30582 6.88976C7.69652 6.49906 7.91602 5.96916 7.91602 5.41663C7.91602 4.86409 7.69652 4.33419 7.30582 3.94349C6.91512 3.55279 6.38522 3.33329 5.83268 3.33329C5.28015 3.33329 4.75024 3.55279 4.35954 3.94349C3.96884 4.33419 3.74935 4.86409 3.74935 5.41663C3.74935 5.96916 3.96884 6.49906 4.35954 6.88976C4.75024 7.28047 5.28015 7.49996 5.83268 7.49996ZM5.83268 9.16663C5.34023 9.16663 4.85259 9.06963 4.39762 8.88117C3.94265 8.69272 3.52925 8.4165 3.18103 8.06828C2.83281 7.72006 2.55659 7.30666 2.36813 6.85169C2.17968 6.39672 2.08268 5.90908 2.08268 5.41663C2.08268 4.92417 2.17968 4.43653 2.36813 3.98156C2.55659 3.52659 2.83281 3.1132 3.18103 2.76498C3.52925 2.41676 3.94265 2.14053 4.39762 1.95208C4.85259 1.76362 5.34023 1.66663 5.83268 1.66663C6.82724 1.66663 7.78107 2.06171 8.48433 2.76498C9.18759 3.46824 9.58268 4.42206 9.58268 5.41663C9.58268 6.41119 9.18759 7.36501 8.48433 8.06828C7.78107 8.77154 6.82724 9.16663 5.83268 9.16663ZM14.5827 10.8333C15.0247 10.8333 15.4486 10.6577 15.7612 10.3451C16.0738 10.0326 16.2493 9.60865 16.2493 9.16663C16.2493 8.7246 16.0738 8.30068 15.7612 7.98811C15.4486 7.67555 15.0247 7.49996 14.5827 7.49996C14.1407 7.49996 13.7167 7.67555 13.4042 7.98811C13.0916 8.30068 12.916 8.7246 12.916 9.16663C12.916 9.60865 13.0916 10.0326 13.4042 10.3451C13.7167 10.6577 14.1407 10.8333 14.5827 10.8333ZM14.5827 12.5C13.6986 12.5 12.8508 12.1488 12.2257 11.5236C11.6005 10.8985 11.2493 10.0507 11.2493 9.16663C11.2493 8.28257 11.6005 7.43472 12.2257 6.8096C12.8508 6.18448 13.6986 5.83329 14.5827 5.83329C15.4667 5.83329 16.3146 6.18448 16.9397 6.8096C17.5648 7.43472 17.916 8.28257 17.916 9.16663C17.916 10.0507 17.5648 10.8985 16.9397 11.5236C16.3146 12.1488 15.4667 12.5 14.5827 12.5ZM16.666 17.5V17.0833C16.666 16.5308 16.4465 16.0009 16.0558 15.6102C15.6651 15.2195 15.1352 15 14.5827 15C14.0301 15 13.5002 15.2195 13.1095 15.6102C12.7188 16.0009 12.4993 16.5308 12.4993 17.0833V17.5H10.8327V17.0833C10.8327 16.5908 10.9297 16.1032 11.1181 15.6482C11.3066 15.1933 11.5828 14.7799 11.931 14.4316C12.2793 14.0834 12.6926 13.8072 13.1476 13.6187C13.6026 13.4303 14.0902 13.3333 14.5827 13.3333C15.0751 13.3333 15.5628 13.4303 16.0177 13.6187C16.4727 13.8072 16.8861 14.0834 17.2343 14.4316C17.5826 14.7799 17.8588 15.1933 18.0472 15.6482C18.2357 16.1032 18.3327 16.5908 18.3327 17.0833V17.5H16.666ZM8.33268 17.5V14.1666C8.33268 13.5036 8.06929 12.8677 7.60045 12.3989C7.13161 11.93 6.49572 11.6666 5.83268 11.6666C5.16964 11.6666 4.53376 11.93 4.06492 12.3989C3.59607 12.8677 3.33268 13.5036 3.33268 14.1666V17.5H1.66602V14.1666C1.66602 13.0616 2.105 12.0017 2.8864 11.2203C3.66781 10.4389 4.72761 9.99996 5.83268 9.99996C6.93775 9.99996 7.99756 10.4389 8.77896 11.2203C9.56036 12.0017 9.99935 13.0616 9.99935 14.1666V17.5H8.33268Z" fill="#464646"/>
</svg>
