<svg width="33" height="32" viewBox="0 0 33 32" fill="none" xmlns="http://www.w3.org/2000/svg">
<path d="M22.1569 16.657L16.5 22.3139L10.8431 16.657C9.7243 15.5381 8.96239 14.1127 8.65371 12.5608C8.34504 11.0089 8.50347 9.40038 9.10898 7.93856C9.71448 6.47674 10.7399 5.22731 12.0555 4.34825C13.371 3.46919 14.9178 3 16.5 3C18.0822 3 19.629 3.46919 20.9445 4.34825C22.2601 5.22731 23.2855 6.47674 23.891 7.93856C24.4965 9.40038 24.655 11.0089 24.3463 12.5608C24.0376 14.1127 23.2757 15.5381 22.1569 16.657ZM16.5 12.7778C16.9715 12.7778 17.4237 12.5905 17.7571 12.2571C18.0905 11.9237 18.2778 11.4715 18.2778 11C18.2778 10.5285 18.0905 10.0763 17.7571 9.74293C17.4237 9.40953 16.9715 9.22222 16.5 9.22222C16.0285 9.22222 15.5763 9.40953 15.2429 9.74293C14.9095 10.0763 14.7222 10.5285 14.7222 11C14.7222 11.4715 14.9095 11.9237 15.2429 12.2571C15.5763 12.5905 16.0285 12.7778 16.5 12.7778Z" stroke="#989898" stroke-width="1.93138"/>
<path d="M10.5 22H7.5L4.5 28H28.5L25.5 22H22.5" stroke="#989898" stroke-width="2"/>
</svg>
