<svg width="33" height="32" viewBox="0 0 33 32" fill="none" xmlns="http://www.w3.org/2000/svg">
<path d="M11.5 18H8.5L4.5 28H28.5L24.5 18H21.5" stroke="#989898" strokeWidth="2"/>
<path d="M11.4032 23.468C10.564 22.6744 10.6288 21.4204 10.8793 20.2929L14.5 4C14.5 4 15.3954 3 16.5 3C17.6046 3 18.5 4 18.5 4L22.1207 20.2929C22.3712 21.4204 22.436 22.6744 21.5968 23.468C20.7925 24.2285 19.2892 25 16.5 25C13.7108 25 12.2075 24.2285 11.4032 23.468Z" stroke="#989898" stroke-width="2"/>
<path d="M12 16.375C12 16.375 12.375 18.625 16.5 18.625C20.625 18.625 21 16.375 21 16.375" stroke="#989898" stroke-width="1.8" strokeLinecap="round" strokeLinejoin="round"/>
<path d="M13.25 9.6875C13.25 9.6875 13.5208 11.3125 16.5 11.3125C19.4792 11.3125 19.75 9.6875 19.75 9.6875" stroke="#989898" strokeWidth="1.85714"/>
</svg>
