<svg width="32" height="32" viewBox="0 0 32 32" fill="none" xmlns="http://www.w3.org/2000/svg">
<path d="M8 18V17H7.32297L7.07152 17.6286L8 18ZM4 28L3.07152 27.6286L2.52297 29H4V28ZM28 28V29H29.477L28.9285 27.6286L28 28ZM24 18L24.9285 17.6286L24.677 17H24V18ZM14 4L13.255 3.33292L13.0805 3.52776L13.0238 3.78307L14 4ZM18 4L18.9762 3.78307L18.9195 3.52776L18.745 3.33292L18 4ZM21.0968 23.468L20.4097 22.7414L20.4097 22.7414L21.0968 23.468ZM21.6207 20.2929L20.6445 20.5099L20.6445 20.5099L21.6207 20.2929ZM10.9032 23.468L10.2162 24.1946L10.2162 24.1946L10.9032 23.468ZM10.3793 20.2929L11.3555 20.5099L11.3555 20.5099L10.3793 20.2929ZM12.741 9.66553L11.7648 9.4486L11.7648 9.4486L12.741 9.66553ZM20.6639 15.9875L19.6877 16.2044L19.6877 16.2044L20.6639 15.9875ZM19.2052 9.86305L20.1297 10.2442L19.2052 9.86305ZM11.3141 16.5389L10.4053 16.9562L11.3141 16.5389ZM12.7548 9.71L13.7282 9.48104L12.7548 9.71ZM20.6536 16.2479L21.5953 16.5846L21.5953 16.5846L20.6536 16.2479ZM7.07152 17.6286L3.07152 27.6286L4.92848 28.3714L8.92848 18.3714L7.07152 17.6286ZM4 29H28V27H4V29ZM28.9285 27.6286L24.9285 17.6286L23.0715 18.3714L27.0715 28.3714L28.9285 27.6286ZM20.4097 22.7414C19.8334 23.2863 18.5985 24 16 24V26C18.9798 26 20.7515 25.1707 21.7838 24.1946L20.4097 22.7414ZM16 24C13.4015 24 12.1666 23.2863 11.5903 22.7414L10.2162 24.1946C11.2485 25.1707 13.0202 26 16 26V24ZM14 4C14.745 4.66708 14.7448 4.6673 14.7446 4.66752C14.7445 4.66758 14.7443 4.6678 14.7442 4.66793C14.744 4.6682 14.7438 4.66845 14.7435 4.66869C14.7431 4.66917 14.7427 4.66959 14.7424 4.66996C14.7417 4.67069 14.7413 4.67119 14.741 4.67148C14.7405 4.67206 14.7407 4.67177 14.7418 4.67066C14.7438 4.66845 14.7489 4.66304 14.7569 4.65488C14.7728 4.6385 14.7999 4.61148 14.8367 4.57736C14.9114 4.50821 15.0207 4.41497 15.1541 4.32279C15.4401 4.12529 15.7387 4 16 4V2C15.1567 2 14.4554 2.37471 14.0174 2.67721C13.789 2.83503 13.6054 2.99179 13.4776 3.11014C13.4132 3.16977 13.3617 3.22088 13.3244 3.25918C13.3057 3.27836 13.2905 3.29444 13.2789 3.30688C13.2731 3.3131 13.2682 3.31842 13.2642 3.32278C13.2622 3.32496 13.2604 3.3269 13.2589 3.32859C13.2581 3.32944 13.2574 3.33022 13.2568 3.33094C13.2565 3.3313 13.2562 3.33165 13.2559 3.33198C13.2557 3.33214 13.2555 3.33238 13.2554 3.33246C13.2552 3.33269 13.255 3.33292 14 4ZM16 4C16.2613 4 16.5599 4.12529 16.8459 4.32279C16.9793 4.41497 17.0886 4.50821 17.1633 4.57736C17.2001 4.61148 17.2272 4.6385 17.2431 4.65488C17.2511 4.66304 17.2562 4.66845 17.2582 4.67066C17.2593 4.67177 17.2595 4.67206 17.259 4.67148C17.2587 4.67119 17.2583 4.67069 17.2576 4.66996C17.2573 4.66959 17.2569 4.66917 17.2565 4.66869C17.2562 4.66845 17.256 4.6682 17.2558 4.66793C17.2557 4.6678 17.2555 4.66758 17.2554 4.66752C17.2552 4.6673 17.255 4.66708 18 4C18.745 3.33292 18.7448 3.33269 18.7446 3.33246C18.7445 3.33238 18.7443 3.33214 18.7441 3.33198C18.7438 3.33165 18.7435 3.3313 18.7432 3.33094C18.7426 3.33022 18.7419 3.32944 18.7411 3.32859C18.7396 3.3269 18.7378 3.32496 18.7358 3.32278C18.7318 3.31842 18.7269 3.3131 18.7211 3.30688C18.7095 3.29444 18.6943 3.27836 18.6756 3.25918C18.6383 3.22088 18.5868 3.16977 18.5224 3.11014C18.3946 2.99179 18.211 2.83503 17.9826 2.67721C17.5446 2.37471 16.8433 2 16 2V4ZM21.7838 24.1946C23.0567 22.991 22.8486 21.2089 22.5968 20.076L20.6445 20.5099C20.8938 21.632 20.8154 22.3578 20.4097 22.7414L21.7838 24.1946ZM11.5903 22.7414C11.1846 22.3578 11.1062 21.632 11.3555 20.5099L9.40316 20.076C9.15142 21.2089 8.9433 22.991 10.2162 24.1946L11.5903 22.7414ZM19.712 15.9113C19.6672 16.0367 19.4902 16.4492 18.9869 16.8329C18.4921 17.2103 17.5967 17.625 16 17.625V19.625C17.9633 19.625 19.3034 19.1068 20.1996 18.4233C21.0875 17.7463 21.4573 16.9704 21.5953 16.5846L19.712 15.9113ZM16 17.625C14.4335 17.625 13.5173 17.27 12.9952 16.9348C12.4731 16.5994 12.2774 16.2402 12.2229 16.1216L10.4053 16.9562C10.5887 17.3555 11.0141 18.0394 11.9145 18.6176C12.8151 19.1959 14.1229 19.625 16 19.625V17.625ZM18.2807 9.48186C18.2582 9.53633 18.1686 9.72276 17.8847 9.90417C17.5963 10.0885 17.0368 10.3125 16 10.3125V12.3125C17.3265 12.3125 18.2821 12.0238 18.9618 11.5894C19.646 11.1521 19.9773 10.6137 20.1297 10.2442L18.2807 9.48186ZM16 10.3125C14.7861 10.3125 14.2284 10.0073 13.989 9.81115C13.7451 9.6113 13.7162 9.42989 13.7282 9.48104L11.7813 9.93896C11.8394 10.1858 12.0471 10.8057 12.7214 11.3581C13.4001 11.9143 14.442 12.3125 16 12.3125V10.3125ZM11.3555 20.5099L11.8651 18.2169L9.9127 17.7831L9.40316 20.076L11.3555 20.5099ZM10.8889 17H8V19H10.8889V17ZM20.1349 18.2169L20.6445 20.5099L22.5968 20.076L22.0873 17.7831L20.1349 18.2169ZM24 17H21.1111V19H24V17ZM17.0238 4.21693L18.2454 9.71413L20.1978 9.28027L18.9762 3.78307L17.0238 4.21693ZM13.7172 9.88246L14.9762 4.21693L13.0238 3.78307L11.7648 9.4486L13.7172 9.88246ZM18.2454 9.71413L19.6877 16.2044L21.6401 15.7705L20.1978 9.28027L18.2454 9.71413ZM19.6877 16.2044L20.1349 18.2169L22.0873 17.7831L21.6401 15.7705L19.6877 16.2044ZM11.8651 18.2169L12.2646 16.419L10.3123 15.9851L9.9127 17.7831L11.8651 18.2169ZM12.2646 16.419L13.7172 9.88246L11.7648 9.4486L10.3123 15.9851L12.2646 16.419ZM20.1297 10.2442C20.2852 9.86711 20.249 9.51084 20.1978 9.28027L18.2454 9.71413C18.2487 9.72878 18.221 9.62673 18.2807 9.48186L20.1297 10.2442ZM12.2229 16.1216C12.2897 16.2671 12.2724 16.3842 12.2646 16.419L10.3123 15.9851C10.254 16.247 10.2414 16.5992 10.4053 16.9562L12.2229 16.1216ZM13.7282 9.48104C13.7175 9.4358 13.6991 9.36639 13.6662 9.28614L11.8158 10.0449C11.7948 9.99387 11.7847 9.95348 11.7813 9.93896L13.7282 9.48104ZM21.5953 16.5846C21.7039 16.2808 21.6894 15.9926 21.6401 15.7705L19.6877 16.2044C19.6771 16.1566 19.6635 16.0469 19.712 15.9113L21.5953 16.5846Z" fill="#989898"/>
</svg>
