<svg width="20" height="20" viewBox="0 0 20 20" fill="none" xmlns="http://www.w3.org/2000/svg">
<g id="Icon">
<path id="Vector" d="M14.166 2.50004H17.4993C17.7204 2.50004 17.9323 2.58784 18.0886 2.74412C18.2449 2.9004 18.3327 3.11236 18.3327 3.33337V16.6667C18.3327 16.8877 18.2449 17.0997 18.0886 17.256C17.9323 17.4122 17.7204 17.5 17.4993 17.5H2.49935C2.27834 17.5 2.06637 17.4122 1.91009 17.256C1.75381 17.0997 1.66602 16.8877 1.66602 16.6667V3.33337C1.66602 3.11236 1.75381 2.9004 1.91009 2.74412C2.06637 2.58784 2.27834 2.50004 2.49935 2.50004H5.83268V0.833374H7.49935V2.50004H12.4993V0.833374H14.166V2.50004ZM3.33268 7.50004V15.8334H16.666V7.50004H3.33268ZM4.99935 10.8334H9.16602V14.1667H4.99935V10.8334Z" fill="#292929"/>
</g>
</svg>
