<svg width="20" height="20" viewBox="0 0 20 20" fill="none" xmlns="http://www.w3.org/2000/svg">
<g id="Icon">
<path id="Vector" d="M9.16683 13.3334C9.16683 14.7141 8.04754 15.8334 6.66683 15.8334C5.28612 15.8334 4.16683 14.7141 4.16683 13.3334C4.16683 11.9527 5.28612 10.8334 6.66683 10.8334C8.04754 10.8334 9.16683 11.9527 9.16683 13.3334ZM9.16683 13.3334H16.6668M10.8335 6.66675C10.8335 8.04746 11.9528 9.16675 13.3335 9.16675C14.7142 9.16675 15.8335 8.04746 15.8335 6.66675C15.8335 5.28604 14.7142 4.16675 13.3335 4.16675C11.9528 4.16675 10.8335 5.28604 10.8335 6.66675ZM10.8335 6.66675H3.3335" stroke="#292929" stroke-width="2"/>
</g>
</svg>
