<svg xmlns="http://www.w3.org/2000/svg" width="25" height="24" viewBox="0 0 25 24" fill="none">
  <path d="M23.0005 12.2331C23.0005 11.3698 22.9291 10.7398 22.7744 10.0864H12.7148V13.983H18.6196C18.5006 14.9514 17.8577 16.4097 16.4291 17.3897L16.4091 17.5202L19.5897 19.9349L19.8101 19.9564C21.8338 18.1247 23.0005 15.4297 23.0005 12.2331" fill="#4285F4"/>
  <path d="M12.7159 22.5001C15.6088 22.5001 18.0373 21.5667 19.8111 19.9567L16.4302 17.39C15.5255 18.0083 14.3111 18.44 12.7159 18.44C9.88264 18.44 7.47791 16.6083 6.62069 14.0767L6.49504 14.0871L3.18778 16.5955L3.14453 16.7133C4.90641 20.1433 8.52545 22.5001 12.7159 22.5001Z" fill="#34A853"/>
  <path d="M6.619 14.0765C6.39281 13.4232 6.26191 12.7231 6.26191 11.9998C6.26191 11.2764 6.39281 10.5765 6.6071 9.92313L6.60111 9.78398L3.25239 7.23535L3.14283 7.28642C2.41667 8.70978 2 10.3081 2 11.9998C2 13.6915 2.41667 15.2897 3.14283 16.7131L6.619 14.0765" fill="#FBBC05"/>
  <path d="M12.716 5.55997C14.7279 5.55997 16.085 6.41163 16.8588 7.12335L19.8826 4.23C18.0256 2.53834 15.6088 1.5 12.716 1.5C8.52548 1.5 4.90642 3.85665 3.14453 7.28662L6.60881 9.92332C7.47794 7.39166 9.88268 5.55997 12.716 5.55997" fill="#EB4335"/>
</svg>