<svg xmlns="http://www.w3.org/2000/svg" width="61" height="61" viewBox="0 0 61 61" fill="none">
  <g clip-path="url(#clip0_1283_45142)">
    <path d="M55.5381 35.8794C55.5054 35.6152 55.4686 35.3515 55.4279 35.0888C54.6165 29.8548 53.0956 24.8308 50.8088 20.5262C48.0384 20.7899 45.085 21.1618 42.3555 21.6896C39.9063 22.1632 37.7368 22.744 36.0751 23.4382C34.3117 24.1748 33.5711 24.8555 33.3537 25.2471C32.7763 26.2876 32.868 27.898 33.902 29.653C34.9473 31.4272 36.4859 32.52 37.5473 32.7072L55.5381 35.8794Z" fill="#989898"/>
    <path d="M55.6008 40.9711L36.6785 37.6346C33.7078 37.1108 31.0984 34.7513 29.591 32.1927C28.0723 29.6149 27.2069 26.0119 28.979 22.819C30.0493 20.8906 32.1384 19.6602 34.1465 18.8214C36.2562 17.9401 38.8 17.281 41.4056 16.7772C43.4719 16.3776 45.6397 16.0642 47.7561 15.8175C44.3987 11.575 39.983 8.56719 34.4214 7.58652C22.1754 5.42722 10.4976 13.6041 8.33828 25.8501C7.11278 32.8003 9.21662 39.5674 13.5041 44.5153L43.3457 49.7772C51.595 51.2317 54.9521 46.6624 55.6008 40.9711Z" fill="#989898"/>
  </g>
  <defs>
    <clipPath id="clip0_1283_45142">
      <rect width="60" height="60" fill="white" transform="translate(0.5 0.144531)"/>
    </clipPath>
  </defs>
</svg>