<svg width="152" height="68" viewBox="0 0 152 68" fill="none" xmlns="http://www.w3.org/2000/svg">
<rect x="63" y="21" width="26" height="26" rx="13" fill="white"/>
<rect x="62" y="20" width="28" height="28" rx="14" stroke="#C7C7C7" stroke-opacity="0.32" stroke-width="2"/>
<path d="M70 34H76M82 34H76M76 34V28M76 34V40" stroke="#464646" stroke-width="1.5" stroke-linecap="round" stroke-linejoin="round"/>
<rect width="68" height="68" rx="34" fill="#10110F"/>
<path d="M42 18H41.8491L34 25.8863L26.1509 18H26L18 26V50H26.1509V29.0711L34 36.9573L41.8491 29.0711V50H50V26L42 18Z" fill="white"/>
<rect x="84" width="68" height="68" rx="34" fill="#625BF6"/>
<path fill-rule="evenodd" clip-rule="evenodd" d="M136 34.2489C136 31.6889 134.76 29.6683 132.39 29.6683C130.01 29.6683 128.569 31.6885 128.569 34.2284C128.569 37.2386 130.269 38.7585 132.709 38.7585C133.899 38.7585 134.799 38.4888 135.479 38.1086V36.1085C134.799 36.4487 134.019 36.6583 133.029 36.6583C132.059 36.6583 131.199 36.3182 131.089 35.1384H135.979C135.979 35.0079 135.999 34.4886 135.999 34.2484L136 34.2489ZM131.064 33.2993C131.064 32.1691 131.754 31.6993 132.384 31.6993C132.994 31.6993 133.644 32.1691 133.644 33.2993H131.064ZM124.714 29.6692C123.734 29.6692 123.105 30.129 122.754 30.4492L122.624 29.8293H120.42V41.4894L122.92 40.9596L122.93 38.1295C123.29 38.3896 123.82 38.7594 124.7 38.7594C126.49 38.7594 128.12 37.3239 128.12 34.1493C128.11 31.2491 126.46 29.6688 124.71 29.6688L124.714 29.6692ZM124.114 36.5596C123.524 36.5596 123.175 36.3495 122.934 36.0898L122.924 32.3792C123.184 32.0891 123.544 31.8894 124.114 31.8894C125.024 31.8894 125.654 32.9095 125.654 34.2193C125.654 35.5591 125.034 36.5596 124.114 36.5596ZM116.98 29.0794L119.49 28.54V26.5103L116.98 27.0401V29.0794ZM116.98 29.8393H119.49V38.5893H116.98V29.8393ZM114.29 30.5788L114.13 29.8393H111.969V38.5902H114.469V32.6594C115.059 31.8894 116.059 32.0295 116.369 32.1396V29.8397C116.049 29.7197 114.88 29.4991 114.29 30.5788ZM109.29 27.6643L106.85 28.185L106.84 36.1951C106.84 37.6749 107.95 38.765 109.43 38.765C110.25 38.765 110.85 38.6149 111.18 38.4344V36.4043C110.86 36.5348 109.28 36.9941 109.28 35.5143V31.9695H111.18V29.8393H109.279L109.29 27.6643ZM102.53 32.3745C102.53 31.9843 102.85 31.8351 103.38 31.8351C104.245 31.8535 105.094 32.0724 105.859 32.4745V30.1294C105.029 29.7988 104.209 29.6696 103.38 29.6696C101.35 29.6696 100 30.7297 100 32.4997C100 35.2598 103.8 34.8196 103.8 36.0102C103.8 36.47 103.4 36.62 102.84 36.62C102.01 36.62 100.95 36.2799 100.11 35.8196V38.1991C101.04 38.5993 101.981 38.7646 102.84 38.7646C104.92 38.7646 106.351 37.7345 106.351 35.9445C106.341 32.9648 102.53 33.4946 102.53 32.3745Z" fill="white"/>
<rect x="63" y="21" width="26" height="26" rx="13" fill="white"/>
<rect x="62" y="20" width="28" height="28" rx="14" stroke="white" stroke-opacity="0.32" stroke-width="2"/>
<path d="M70 34H76M82 34H76M76 34V28M76 34V40" stroke="#464646" stroke-width="1.5" stroke-linecap="round" stroke-linejoin="round"/>
</svg>
