<svg width="16" height="16" viewBox="0 0 16 16" fill="none" xmlns="http://www.w3.org/2000/svg">
<g id="remix-icons/fill/business/calendar-fill">
<path id="Vector" d="M1.3335 7.33329H14.6668V13.3333C14.6668 13.5101 14.5966 13.6797 14.4716 13.8047C14.3465 13.9297 14.177 14 14.0002 14H2.00016C1.82335 14 1.65378 13.9297 1.52876 13.8047C1.40373 13.6797 1.3335 13.5101 1.3335 13.3333V7.33329ZM11.3335 1.99996H14.0002C14.177 1.99996 14.3465 2.0702 14.4716 2.19522C14.5966 2.32025 14.6668 2.48981 14.6668 2.66663V5.99996H1.3335V2.66663C1.3335 2.48981 1.40373 2.32025 1.52876 2.19522C1.65378 2.0702 1.82335 1.99996 2.00016 1.99996H4.66683V0.666626H6.00016V1.99996H10.0002V0.666626H11.3335V1.99996Z" fill="#ffffff"/>
</g>
</svg>
