<svg width="16" height="16" viewBox="0 0 16 16" fill="none" xmlns="http://www.w3.org/2000/svg">
<g id="remix-icons/fill/user/user-4-fill">
<path id="Vector" d="M13.3337 14.3332H2.66699V12.9998C2.66699 12.1158 3.01818 11.2679 3.6433 10.6428C4.26842 10.0177 5.11627 9.6665 6.00033 9.6665H10.0003C10.8844 9.6665 11.7322 10.0177 12.3573 10.6428C12.9825 11.2679 13.3337 12.1158 13.3337 12.9998V14.3332ZM8.00033 9.6665C7.47504 9.6665 6.9549 9.56304 6.46959 9.36202C5.98429 9.161 5.54333 8.86636 5.1719 8.49493C4.80046 8.1235 4.50583 7.68254 4.30481 7.19724C4.10379 6.71193 4.00033 6.19179 4.00033 5.6665C4.00033 5.14122 4.10379 4.62107 4.30481 4.13577C4.50583 3.65047 4.80046 3.20951 5.1719 2.83808C5.54333 2.46664 5.98429 2.172 6.46959 1.97099C6.9549 1.76997 7.47504 1.6665 8.00033 1.6665C9.06119 1.6665 10.0786 2.08793 10.8288 2.83808C11.5789 3.58822 12.0003 4.60564 12.0003 5.6665C12.0003 6.72737 11.5789 7.74479 10.8288 8.49493C10.0786 9.24508 9.06119 9.6665 8.00033 9.6665Z" fill="#ffffff"/>
</g>
</svg>
