<svg width="20" height="20" viewBox="0 0 20 20" fill="none" xmlns="http://www.w3.org/2000/svg">
<g id="Icon">
<path id="Vector" d="M9.16732 13.3333C9.16732 14.714 8.04803 15.8333 6.66732 15.8333C5.28661 15.8333 4.16732 14.714 4.16732 13.3333C4.16732 11.9526 5.28661 10.8333 6.66732 10.8333C8.04803 10.8333 9.16732 11.9526 9.16732 13.3333ZM9.16732 13.3333H16.6673M10.834 6.66663C10.834 8.04734 11.9533 9.16663 13.334 9.16663C14.7147 9.16663 15.834 8.04734 15.834 6.66663C15.834 5.28591 14.7147 4.16663 13.334 4.16663C11.9533 4.16663 10.834 5.28591 10.834 6.66663ZM10.834 6.66663H3.33398" stroke="#292929" stroke-width="2"/>
</g>
</svg>
