<svg width="17" height="16" viewBox="0 0 17 16" fill="none" xmlns="http://www.w3.org/2000/svg">
<g clip-path="url(#clip0_2745_23666)">
<path d="M15.1768 9.52878C15.1681 9.45831 15.1583 9.388 15.1474 9.31796C14.9311 7.92221 14.5255 6.58249 13.9157 5.43458C13.1769 5.50491 12.3893 5.6041 11.6615 5.74484C11.0083 5.87113 10.4298 6.026 9.98669 6.21112C9.51646 6.40754 9.31896 6.58907 9.261 6.6935C9.107 6.97096 9.13147 7.4004 9.40719 7.8684C9.68593 8.34154 10.0962 8.63294 10.3793 8.68285L15.1768 9.52878Z" fill="#F65703"/>
<path d="M15.1936 10.8866L10.1476 9.99683C9.35542 9.85714 8.65957 9.22795 8.25761 8.54566C7.85262 7.85824 7.62183 6.89743 8.09439 6.04601C8.37981 5.53177 8.9369 5.20366 9.4724 4.97997C10.035 4.74495 10.7133 4.56921 11.4081 4.43486C11.9592 4.32831 12.5372 4.24473 13.1016 4.17893C12.2063 3.04761 11.0288 2.24552 9.54571 1.98401C6.28011 1.4082 3.16602 3.5887 2.59021 6.85431C2.26341 8.70768 2.82443 10.5122 3.96777 11.8317L11.9255 13.2348C14.1253 13.6227 15.0206 12.4042 15.1936 10.8866Z" fill="#F65703"/>
</g>
<defs>
<clipPath id="clip0_2745_23666">
<rect width="16" height="16" fill="white" transform="translate(0.5)"/>
</clipPath>
</defs>
</svg>
