<svg width="33" height="32" viewBox="0 0 33 32" fill="none" xmlns="http://www.w3.org/2000/svg">
<path d="M7.5 10.0625C9.69883 7.57126 12.9159 6 16.5 6C23.1274 6 28.5 11.3726 28.5 18C28.5 24.6274 23.1274 30 16.5 30C12.9159 30 9.69883 28.4287 7.5 25.9375" stroke="#989898" stroke-width="1.85714"/>
<path d="M7.5 10.0625C9.69883 7.57126 12.9159 6 16.5 6C23.1274 6 28.5 11.3726 28.5 18C28.5 24.6274 23.1274 30 16.5 30C12.9159 30 9.69883 28.4287 7.5 25.9375" stroke="#989898" stroke-width="1.85714"/>
<path d="M16.5 23.0001V26.0001C20.9183 26.0001 24.5 22.4183 24.5 18.0001C24.5 15.0389 22.8912 12.4536 20.5 11.0703L17.6545 16" stroke="#989898" stroke-width="1.85714"/>
<path d="M16.5 6V2M16.5 2H12.5M16.5 2H20.5" stroke="#989898" stroke-width="2"/>
<circle cx="16.5001" cy="18.0001" r="2" transform="rotate(30 16.5001 18.0001)" stroke="#989898" stroke-width="1.85714"/>
<path d="M1.5 18H8.5" stroke="#989898" stroke-width="2"/>
<path d="M4.5 14H9.5" stroke="#989898" stroke-width="2"/>
<path d="M4.5 22H9.5" stroke="#989898" stroke-width="2"/>
</svg>
