<svg width="20" height="20" viewBox="0 0 20 20" fill="none" xmlns="http://www.w3.org/2000/svg">
<g id="Leading icon">
<path id="Vector" d="M15.0252 13.8475L18.5943 17.4158L17.4152 18.595L13.8469 15.0258C12.5191 16.0901 10.8677 16.669 9.16602 16.6666C5.02602 16.6666 1.66602 13.3066 1.66602 9.16663C1.66602 5.02663 5.02602 1.66663 9.16602 1.66663C13.306 1.66663 16.666 5.02663 16.666 9.16663C16.6684 10.8683 16.0895 12.5197 15.0252 13.8475ZM13.3535 13.2291C14.4111 12.1415 15.0017 10.6837 14.9993 9.16663C14.9993 5.94329 12.3885 3.33329 9.16602 3.33329C5.94268 3.33329 3.33268 5.94329 3.33268 9.16663C3.33268 12.3891 5.94268 15 9.16602 15C10.683 15.0023 12.1409 14.4117 13.2285 13.3541L13.3535 13.2291Z" fill="#656565"/>
</g>
</svg>
