<svg width="32" height="32" viewBox="0 0 32 32" fill="none" xmlns="http://www.w3.org/2000/svg">
<path d="M3 29C3 19 3 13 10 3" stroke="#292929" stroke-width="2" stroke-linecap="round"/>
<path d="M29 29C22 21 20 14 23.5 3" stroke="#292929" stroke-width="2" stroke-linecap="round"/>
<path d="M10 12.01L10.01 11.9989" stroke="#464646" stroke-width="2" stroke-linecap="round" stroke-linejoin="round"/>
<path d="M7 24.01L7.01 23.9989" stroke="#464646" stroke-width="2" stroke-linecap="round" stroke-linejoin="round"/>
<path d="M10 20.01L10.01 19.9989" stroke="#464646" stroke-width="2" stroke-linecap="round" stroke-linejoin="round"/>
<path d="M10 28.01L10.01 27.9989" stroke="#464646" stroke-width="2" stroke-linecap="round" stroke-linejoin="round"/>
<path d="M7 16.01L7.01 15.9989" stroke="#464646" stroke-width="2" stroke-linecap="round" stroke-linejoin="round"/>
<path d="M13 8.01001L13.01 7.9989" stroke="#464646" stroke-width="2" stroke-linecap="round" stroke-linejoin="round"/>
<path d="M13 24.01L13.01 23.9989" stroke="#464646" stroke-width="2" stroke-linecap="round" stroke-linejoin="round"/>
<path d="M16 20.01L16.01 19.9989" stroke="#464646" stroke-width="2" stroke-linecap="round" stroke-linejoin="round"/>
<path d="M16 12.01L16.01 11.9989" stroke="#464646" stroke-width="2" stroke-linecap="round" stroke-linejoin="round"/>
<path d="M16 4.01L16.01 3.99889" stroke="#464646" stroke-width="2" stroke-linecap="round" stroke-linejoin="round"/>
<path d="M16 28.01L16.01 27.9989" stroke="#464646" stroke-width="2" stroke-linecap="round" stroke-linejoin="round"/>
<path d="M13 16.01L13.01 15.9989" stroke="#464646" stroke-width="2" stroke-linecap="round" stroke-linejoin="round"/>
<path d="M19 8.01L19.01 7.99889" stroke="#464646" stroke-width="2" stroke-linecap="round" stroke-linejoin="round"/>
<path d="M19 24.01L19.01 23.9989" stroke="#464646" stroke-width="2" stroke-linecap="round" stroke-linejoin="round"/>
<path d="M19 16.01L19.01 15.9989" stroke="#464646" stroke-width="2" stroke-linecap="round" stroke-linejoin="round"/>
<path d="M22 28.01L22.01 27.9989" stroke="#464646" stroke-width="2" stroke-linecap="round" stroke-linejoin="round"/>
<path d="M27 15.5C28.1046 15.5 29 14.6046 29 13.5C29 12.3954 28 8 27 8C25.8954 8 25 12.3954 25 13.5C25 14.6046 25.8954 15.5 27 15.5ZM27 15.5V18" stroke="#292929" stroke-width="2" stroke-linecap="round"/>
</svg>
