<svg width="20" height="20" viewBox="0 0 20 20" fill="none" xmlns="http://www.w3.org/2000/svg">
<path d="M17.4993 2.5C17.7204 2.5 17.9323 2.5878 18.0886 2.74408C18.2449 2.90036 18.3327 3.11232 18.3327 3.33333V7.91667C17.7801 7.91667 17.2502 8.13616 16.8595 8.52686C16.4688 8.91756 16.2493 9.44747 16.2493 10C16.2493 10.5525 16.4688 11.0824 16.8595 11.4731C17.2502 11.8638 17.7801 12.0833 18.3327 12.0833V16.6667C18.3327 16.8877 18.2449 17.0996 18.0886 17.2559C17.9323 17.4122 17.7204 17.5 17.4993 17.5H2.49935C2.27834 17.5 2.06637 17.4122 1.91009 17.2559C1.75381 17.0996 1.66602 16.8877 1.66602 16.6667V12.0833C2.21855 12.0833 2.74845 11.8638 3.13915 11.4731C3.52986 11.0824 3.74935 10.5525 3.74935 10C3.74935 9.44747 3.52986 8.91756 3.13915 8.52686C2.74845 8.13616 2.21855 7.91667 1.66602 7.91667V3.33333C1.66602 3.11232 1.75381 2.90036 1.91009 2.74408C2.06637 2.5878 2.27834 2.5 2.49935 2.5H17.4993ZM16.666 4.16667H3.33268V6.64L3.46268 6.7075C4.02795 7.01587 4.50429 7.4646 4.84582 8.01047C5.18736 8.55634 5.38258 9.18096 5.41268 9.82417L5.41602 10C5.41612 10.6735 5.23478 11.3347 4.89106 11.9139C4.54734 12.4931 4.05392 12.969 3.46268 13.2917L3.33268 13.36V15.8333H16.666V13.3592L16.536 13.2925C15.9707 12.9841 15.4944 12.5354 15.1529 11.9895C14.8113 11.4437 14.6161 10.819 14.586 10.1758L14.5827 10C14.5827 8.58 15.3718 7.34417 16.536 6.70833L16.666 6.63917V4.16667Z" fill="#464646"/>
</svg>
