<svg width="24" height="24" viewBox="0 0 24 24" fill="none" xmlns="http://www.w3.org/2000/svg">
<path fill-rule="evenodd" clip-rule="evenodd" d="M21 3C21.2652 3 21.5196 3.10536 21.7071 3.29289C21.8946 3.48043 22 3.73478 22 4V9.5C21.337 9.5 20.7011 9.76339 20.2322 10.2322C19.7634 10.7011 19.5 11.337 19.5 12C19.5 12.663 19.7634 13.2989 20.2322 13.7678C20.7011 14.2366 21.337 14.5 22 14.5V20C22 20.2652 21.8946 20.5196 21.7071 20.7071C21.5196 20.8946 21.2652 21 21 21H3C2.73478 21 2.48043 20.8946 2.29289 20.7071C2.10536 20.5196 2 20.2652 2 20V14.5C2.66304 14.5 3.29893 14.2366 3.76777 13.7678C4.23661 13.2989 4.5 12.663 4.5 12C4.5 11.337 4.23661 10.7011 3.76777 10.2322C3.29893 9.76339 2.66304 9.5 2 9.5V4C2 3.73478 2.10536 3.48043 2.29289 3.29289C2.48043 3.10536 2.73478 3 3 3H21ZM8.73405 7.80005C9.37838 7.80005 9.90072 8.32238 9.90072 8.96672C9.90072 9.61105 9.37838 10.1334 8.73405 10.1334C8.08972 10.1334 7.56738 9.61105 7.56738 8.96672C7.56738 8.32238 8.08972 7.80005 8.73405 7.80005ZM15.2673 7.80005C15.9116 7.80005 16.4339 8.32238 16.4339 8.96672C16.4339 9.61105 15.9116 10.1334 15.2673 10.1334C14.6229 10.1334 14.1006 9.61105 14.1006 8.96672C14.1006 8.32238 14.6229 7.80005 15.2673 7.80005ZM8.35734 15.9231C8.12479 16.2297 7.68791 16.2912 7.37965 16.06C7.07037 15.8281 7.00769 15.3893 7.23965 15.08L7.24051 15.0789L7.24149 15.0776L7.24387 15.0744L7.25025 15.0661L7.26945 15.0418C7.28512 15.0222 7.30657 14.996 7.3338 14.9643C7.38822 14.9008 7.46598 14.8146 7.56718 14.7134C7.76922 14.5113 8.06699 14.2472 8.46136 13.9842C9.2528 13.4566 10.4356 12.9333 11.9997 12.9333C13.5637 12.9333 14.7465 13.4566 15.5379 13.9842C15.9323 14.2472 16.2301 14.5113 16.4321 14.7134C16.5333 14.8146 16.6111 14.9008 16.6655 14.9643C16.6976 15.0016 16.7289 15.0397 16.7588 15.0789C16.7588 15.0789 16.553 14.8386 16.7596 15.08C16.9916 15.3893 16.9289 15.8281 16.6196 16.06C16.3114 16.2912 15.8745 16.2297 15.642 15.9231L15.6366 15.9163C15.6304 15.9086 15.6191 15.8946 15.6025 15.8754C15.5695 15.8368 15.516 15.7771 15.4422 15.7033C15.2942 15.5554 15.067 15.3529 14.7614 15.1491C14.1528 14.7434 13.2356 14.3333 11.9997 14.3333C10.7637 14.3333 9.8465 14.7434 9.23794 15.1491C8.93231 15.3529 8.70508 15.5554 8.55713 15.7033C8.48332 15.7771 8.42983 15.8368 8.39676 15.8754C8.38023 15.8946 8.36887 15.9086 8.36267 15.9163L8.35734 15.9231Z" fill="#ffffff"/>
</svg>
