<svg width="24" height="24" viewBox="0 0 24 24" fill="none" xmlns="http://www.w3.org/2000/svg">
<path fill-rule="evenodd" clip-rule="evenodd" d="M21.7071 3.29289C21.5196 3.10536 21.2652 3 21 3H3C2.73478 3 2.48043 3.10536 2.29289 3.29289C2.10536 3.48043 2 3.73478 2 4V9.5C2.66304 9.5 3.29893 9.76339 3.76777 10.2322C4.23661 10.7011 4.5 11.337 4.5 12C4.5 12.663 4.23661 13.2989 3.76777 13.7678C3.29893 14.2366 2.66304 14.5 2 14.5V20C2 20.2652 2.10536 20.5196 2.29289 20.7071C2.48043 20.8946 2.73478 21 3 21H21C21.2652 21 21.5196 20.8946 21.7071 20.7071C21.8946 20.5196 22 20.2652 22 20V14.5C21.337 14.5 20.7011 14.2366 20.2322 13.7678C19.7634 13.2989 19.5 12.663 19.5 12C19.5 11.337 19.7634 10.7011 20.2322 10.2322C20.7011 9.76339 21.337 9.5 22 9.5V4C22 3.73478 21.8946 3.48043 21.7071 3.29289ZM16.669 9.66653L10.8364 15.5L7.33594 11.9996L8.50247 10.8331L10.8364 13.1669L15.5025 8.5L16.669 9.66653Z" fill="#FFFFFF"/>
</svg>
