<svg width="20" height="20" viewBox="0 0 20 20" fill="none" xmlns="http://www.w3.org/2000/svg">
<g id="remix-icons/fill/system/upload-cloud-fill">
<path id="Vector" d="M5.83401 17.4841C4.69572 17.3967 3.61415 16.9519 2.74372 16.2132C1.8733 15.4745 1.25854 14.4796 0.987225 13.3707C0.715906 12.2617 0.801901 11.0954 1.23293 10.0383C1.66396 8.98114 2.41799 8.08721 3.38734 7.48413C3.5936 5.87587 4.37884 4.39789 5.59611 3.32676C6.81338 2.25564 8.37925 1.66479 10.0007 1.66479C11.6221 1.66479 13.188 2.25564 14.4052 3.32676C15.6225 4.39789 16.4078 5.87587 16.614 7.48413C17.5834 8.08721 18.3374 8.98114 18.7684 10.0383C19.1995 11.0954 19.2854 12.2617 19.0141 13.3707C18.7428 14.4796 18.128 15.4745 17.2576 16.2132C16.3872 16.9519 15.3056 17.3967 14.1673 17.4841V17.5H5.83401V17.4841ZM10.834 10.8333H13.334L10.0007 6.66663L6.66734 10.8333H9.16734V14.1666H10.834V10.8333Z" fill="#464646"/>
</g>
</svg>
