<svg width="28" height="24" viewBox="0 0 28 24" fill="none" xmlns="http://www.w3.org/2000/svg">
<path d="M5.96207 24C5.23145 24 4.50797 23.8603 3.83296 23.5889C3.15795 23.3176 2.54462 22.9198 2.02799 22.4184C1.51136 21.9169 1.10154 21.3217 0.821944 20.6665C0.542345 20.0113 0.398438 19.3091 0.398438 18.6C0.398438 17.8909 0.542345 17.1887 0.821944 16.5335C1.10154 15.8784 1.51136 15.2831 2.02799 14.7816C2.54462 14.2802 3.15795 13.8824 3.83296 13.6111C4.50797 13.3397 5.23145 13.2 5.96207 13.2C7.43764 13.2 8.85277 13.7689 9.89616 14.7816C10.9395 15.7943 11.5257 17.1678 11.5257 18.6C11.5257 20.0322 10.9395 21.4057 9.89616 22.4184C8.85277 23.4311 7.43764 24 5.96207 24ZM5.96207 21.6C6.78183 21.6 7.56802 21.2839 8.14768 20.7213C8.72733 20.1587 9.05298 19.3957 9.05298 18.6C9.05298 17.8044 8.72733 17.0413 8.14768 16.4787C7.56802 15.9161 6.78183 15.6 5.96207 15.6C5.14231 15.6 4.35613 15.9161 3.77647 16.4787C3.19681 17.0413 2.87116 17.8044 2.87116 18.6C2.87116 19.3957 3.19681 20.1587 3.77647 20.7213C4.35613 21.2839 5.14231 21.6 5.96207 21.6ZM22.0348 24C21.3042 24 20.5807 23.8603 19.9057 23.5889C19.2307 23.3176 18.6173 22.9198 18.1007 22.4184C17.5841 21.9169 17.1743 21.3217 16.8947 20.6665C16.6151 20.0113 16.4712 19.3091 16.4712 18.6C16.4712 17.8909 16.6151 17.1887 16.8947 16.5335C17.1743 15.8784 17.5841 15.2831 18.1007 14.7816C18.6173 14.2802 19.2307 13.8824 19.9057 13.6111C20.5807 13.3397 21.3042 13.2 22.0348 13.2C23.5104 13.2 24.9255 13.7689 25.9689 14.7816C27.0123 15.7943 27.5984 17.1678 27.5984 18.6C27.5984 20.0322 27.0123 21.4057 25.9689 22.4184C24.9255 23.4311 23.5104 24 22.0348 24ZM22.0348 21.6C22.8546 21.6 23.6407 21.2839 24.2204 20.7213C24.8001 20.1587 25.1257 19.3957 25.1257 18.6C25.1257 17.8044 24.8001 17.0413 24.2204 16.4787C23.6407 15.9161 22.8546 15.6 22.0348 15.6C21.215 15.6 20.4289 15.9161 19.8492 16.4787C19.2695 17.0413 18.9439 17.8044 18.9439 18.6C18.9439 19.3957 19.2695 20.1587 19.8492 20.7213C20.4289 21.2839 21.215 21.6 22.0348 21.6ZM12.7905 11.166L15.2348 13.2V20.4H12.7621V14.4L9.4004 11.6808C9.10125 11.4813 8.85103 11.2203 8.6675 10.9163C8.48398 10.6124 8.37165 10.2729 8.33849 9.92209C8.30532 9.57126 8.35215 9.21765 8.47563 8.88636C8.59912 8.55507 8.79623 8.25423 9.05298 8.0052L12.5494 4.6116C12.779 4.38864 13.0517 4.21177 13.3518 4.09109C13.6518 3.97042 13.9734 3.90831 14.2983 3.90831C14.6231 3.90831 14.9447 3.97042 15.2448 4.09109C15.5448 4.21177 15.8175 4.38864 16.0471 4.6116L17.7953 6.3084C19.1046 7.58378 20.8031 8.41498 22.6381 8.6784L22.6258 11.0964C20.1359 10.8182 17.8168 9.7289 16.0471 8.0064L12.7905 11.166ZM18.9439 4.8C18.2881 4.8 17.6591 4.54714 17.1954 4.09706C16.7317 3.64697 16.4712 3.03652 16.4712 2.4C16.4712 1.76348 16.7317 1.15303 17.1954 0.702944C17.6591 0.252856 18.2881 0 18.9439 0C19.5997 0 20.2286 0.252856 20.6924 0.702944C21.1561 1.15303 21.4166 1.76348 21.4166 2.4C21.4166 3.03652 21.1561 3.64697 20.6924 4.09706C20.2286 4.54714 19.5997 4.8 18.9439 4.8Z" fill="#FF720D"/>
</svg>
