<svg width="20" height="20" viewBox="0 0 20 20" fill="none" xmlns="http://www.w3.org/2000/svg">
<path fill-rule="evenodd" clip-rule="evenodd" d="M14.9993 10.0001C14.9993 12.7615 12.7608 15.0001 9.99935 15.0001C7.23793 15.0001 4.99935 12.7615 4.99935 10.0001C4.99935 7.23866 7.23793 5.00008 9.99935 5.00008C12.7608 5.00008 14.9993 7.23866 14.9993 10.0001ZM13.3327 10.0001C13.3327 10.8061 13.0466 11.5453 12.5704 12.1217L11.3471 10.4403L13.3265 9.79593C13.3306 9.86346 13.3327 9.93153 13.3327 10.0001ZM9.99936 11.4208L11.2225 13.1019C10.8438 13.2513 10.4312 13.3334 9.99935 13.3334C9.56768 13.3334 9.15517 13.2514 8.77657 13.102L9.99936 11.4208ZM6.66602 10.0001C6.66602 10.8062 6.95219 11.5455 7.42849 12.122L8.65385 10.4373L6.67224 9.79463C6.66811 9.86259 6.66602 9.93109 6.66602 10.0001ZM9.16415 8.85062L7.18726 8.20954C7.63493 7.50793 8.33795 6.98507 9.16537 6.77193L9.16415 8.85062ZM10.8308 8.85562L10.832 6.7716C11.6604 6.98463 12.3643 7.50811 12.8121 8.21063L10.8308 8.85562ZM9.99935 10.8334C10.4596 10.8334 10.8327 10.4603 10.8327 10.0001C10.8327 9.53984 10.4596 9.16675 9.99935 9.16675C9.53911 9.16675 9.16602 9.53984 9.16602 10.0001C9.16602 10.4603 9.53911 10.8334 9.99935 10.8334Z" fill="#464646"/>
<path fill-rule="evenodd" clip-rule="evenodd" d="M18.3327 10.0001C18.3327 14.6025 14.6017 18.3334 9.99935 18.3334C5.39698 18.3334 1.66602 14.6025 1.66602 10.0001C1.66602 5.39771 5.39698 1.66675 9.99935 1.66675C14.6017 1.66675 18.3327 5.39771 18.3327 10.0001ZM16.666 10.0001C16.666 13.682 13.6812 16.6667 9.99935 16.6667C6.31745 16.6667 3.33268 13.682 3.33268 10.0001C3.33268 6.31818 6.31745 3.33341 9.99935 3.33341C13.6812 3.33341 16.666 6.31818 16.666 10.0001Z" fill="#464646"/>
</svg>
