<svg width="160" height="20" viewBox="0 0 160 20" fill="none" xmlns="http://www.w3.org/2000/svg">
<path d="M15.0711 0H14.9763L10.0474 4.92891L5.11848 0H5.0237L0 5V20H5.11848V6.91943L10.0474 11.8483L14.9763 6.91943V20H20.0948V5L15.0711 0Z" fill="white"/>
<path fill-rule="evenodd" clip-rule="evenodd" d="M38.9573 0H28.91L23.8863 5V15L28.91 20H38.9573L43.981 15V5L38.9573 0ZM29.0047 5.21327H38.8626V15.0711H29.0047V5.21327Z" fill="white"/>
<path d="M54.1659 20H59.0948V4.92891H66.4882V0H46.7725V4.92891H54.1659V20Z" fill="white"/>
<path fill-rule="evenodd" clip-rule="evenodd" d="M84.3507 0H74.3033L69.2796 5V15L74.3033 20H84.3507L89.3744 15V5L84.3507 0ZM74.3981 5.21327H84.2559V15.0711H74.3981V5.21327Z" fill="white"/>
<path d="M98.0948 20H93.1659V0H112.882V11.9431L110.038 14.7867L115.251 20H108.237L103.024 14.7867V9.85782H107.953V4.92891H98.0948V20Z" fill="white"/>
<path d="M116.673 20V15.0711H124.066V4.92891H116.673V0H136.389V4.92891H128.995V15.0711H136.389V20H116.673Z" fill="white"/>
<path d="M140.18 0H145.109V7.75936L152.879 0H159.859L149.867 9.99278L159.874 20H152.903L145.109 12.2056V20H140.18V0Z" fill="white"/>
</svg>
